<svg width="470" height="167" viewBox="0 0 470 167" fill="none" xmlns="http://www.w3.org/2000/svg">
<path d="M434.577 166.998C433.073 166.998 431.682 166.876 430.402 166.633C429.142 166.409 428.136 166.145 427.384 165.84L429.944 157.246C431.55 157.713 432.982 157.937 434.242 157.916C435.501 157.896 436.609 157.5 437.564 156.728C438.539 155.976 439.362 154.716 440.032 152.949L440.977 150.419L424.002 102.632H435.705L446.493 137.984H446.981L457.8 102.632H469.534L450.79 155.112C449.917 157.591 448.759 159.714 447.316 161.482C445.874 163.27 444.106 164.631 442.013 165.566C439.941 166.521 437.462 166.998 434.577 166.998Z" fill="black"/>
<path d="M396.559 149.439V102.627H407.256V110.429H407.744C408.597 107.727 410.06 105.644 412.133 104.181C414.225 102.698 416.613 101.956 419.295 101.956C419.904 101.956 420.585 101.987 421.336 102.048C422.109 102.088 422.749 102.16 423.257 102.261V112.41C422.789 112.247 422.048 112.105 421.032 111.983C420.036 111.841 419.071 111.77 418.136 111.77C416.125 111.77 414.317 112.207 412.712 113.08C411.127 113.934 409.877 115.122 408.963 116.646C408.049 118.17 407.591 119.927 407.591 121.919V149.439H396.559Z" fill="black"/>
<path d="M370.701 150.356C366.007 150.356 361.954 149.381 358.541 147.43C355.148 145.46 352.537 142.676 350.708 139.08C348.88 135.463 347.965 131.207 347.965 126.31C347.965 121.495 348.88 117.269 350.708 113.632C352.557 109.975 355.137 107.13 358.449 105.098C361.761 103.046 365.652 102.02 370.122 102.02C373.007 102.02 375.73 102.487 378.29 103.422C380.87 104.336 383.146 105.759 385.116 107.689C387.107 109.619 388.672 112.077 389.81 115.064C390.948 118.031 391.516 121.566 391.516 125.67V129.053H353.146V121.617H380.941C380.921 119.504 380.464 117.624 379.57 115.978C378.676 114.312 377.426 113.002 375.821 112.047C374.236 111.092 372.387 110.615 370.274 110.615C368.019 110.615 366.038 111.163 364.331 112.26C362.625 113.337 361.294 114.759 360.339 116.527C359.404 118.274 358.927 120.194 358.906 122.287V128.779C358.906 131.501 359.404 133.838 360.4 135.788C361.395 137.719 362.787 139.202 364.575 140.238C366.363 141.254 368.456 141.762 370.853 141.762C372.458 141.762 373.911 141.538 375.211 141.091C376.512 140.624 377.639 139.943 378.594 139.049C379.549 138.155 380.271 137.048 380.758 135.727L391.059 136.885C390.409 139.608 389.17 141.985 387.341 144.017C385.533 146.028 383.217 147.593 380.392 148.71C377.568 149.808 374.338 150.356 370.701 150.356Z" fill="black"/>
<path d="M348.226 102.632L331.555 149.444H319.365L302.694 102.632H314.458L325.216 137.405H325.704L336.492 102.632H348.226Z" fill="black"/>
<path d="M288.326 149.441V102.629H299.358V149.441H288.326ZM293.872 95.9851C292.125 95.9851 290.622 95.4061 289.362 94.248C288.102 93.0695 287.472 91.6574 287.472 90.0117C287.472 88.3457 288.102 86.9336 289.362 85.7755C290.622 84.597 292.125 84.0078 293.872 84.0078C295.64 84.0078 297.144 84.597 298.383 85.7755C299.643 86.9336 300.272 88.3457 300.272 90.0117C300.272 91.6574 299.643 93.0695 298.383 94.248C297.144 95.4061 295.64 95.9851 293.872 95.9851Z" fill="black"/>
<path d="M281.272 87.0276V149.444H270.239V87.0276H281.272Z" fill="black"/>
<path d="M244.381 150.356C239.688 150.356 235.635 149.381 232.221 147.43C228.828 145.46 226.217 142.676 224.389 139.08C222.56 135.463 221.646 131.207 221.646 126.31C221.646 121.495 222.56 117.269 224.389 113.632C226.238 109.975 228.818 107.13 232.13 105.098C235.442 103.046 239.332 102.02 243.802 102.02C246.687 102.02 249.41 102.487 251.97 103.422C254.55 104.336 256.826 105.759 258.797 107.689C260.788 109.619 262.352 112.077 263.49 115.064C264.628 118.031 265.197 121.566 265.197 125.67V129.053H226.827V121.617H254.622C254.601 119.504 254.144 117.624 253.25 115.978C252.356 114.312 251.107 113.002 249.501 112.047C247.917 111.092 246.068 110.615 243.955 110.615C241.699 110.615 239.718 111.163 238.012 112.26C236.305 113.337 234.974 114.759 234.019 116.527C233.085 118.274 232.607 120.194 232.587 122.287V128.779C232.587 131.501 233.085 133.838 234.08 135.788C235.076 137.719 236.468 139.202 238.256 140.238C240.044 141.254 242.136 141.762 244.534 141.762C246.139 141.762 247.592 141.538 248.892 141.091C250.192 140.624 251.32 139.943 252.275 139.049C253.23 138.155 253.951 137.048 254.439 135.727L264.74 136.885C264.09 139.608 262.85 141.985 261.022 144.017C259.213 146.028 256.897 147.593 254.073 148.71C251.249 149.808 248.018 150.356 244.381 150.356Z" fill="black"/>
<path d="M191.262 150.267C187.584 150.267 184.293 149.322 181.387 147.432C178.482 145.543 176.186 142.8 174.5 139.204C172.813 135.607 171.97 131.239 171.97 126.099C171.97 120.897 172.824 116.509 174.53 112.933C176.257 109.337 178.584 106.624 181.509 104.795C184.435 102.947 187.696 102.022 191.292 102.022C194.035 102.022 196.291 102.489 198.058 103.424C199.826 104.338 201.228 105.446 202.264 106.746C203.3 108.026 204.103 109.235 204.672 110.373H205.129V87.0276H216.192V149.444H205.342V142.068H204.672C204.103 143.206 203.28 144.415 202.203 145.695C201.126 146.955 199.704 148.032 197.936 148.926C196.169 149.82 193.944 150.267 191.262 150.267ZM194.34 141.215C196.677 141.215 198.668 140.585 200.314 139.326C201.959 138.046 203.209 136.268 204.062 133.992C204.915 131.717 205.342 129.065 205.342 126.038C205.342 123.01 204.915 120.379 204.062 118.144C203.229 115.909 201.99 114.172 200.344 112.933C198.719 111.693 196.717 111.074 194.34 111.074C191.882 111.074 189.83 111.714 188.184 112.994C186.538 114.274 185.299 116.041 184.466 118.297C183.633 120.552 183.216 123.132 183.216 126.038C183.216 128.963 183.633 131.574 184.466 133.87C185.319 136.146 186.569 137.944 188.214 139.265C189.88 140.565 191.922 141.215 194.34 141.215Z" fill="black"/>
<path d="M149.567 18.5256V27.0591H122.656V18.5256H149.567ZM129.3 7.31021H140.333V51.2576C140.333 52.7408 140.556 53.8786 141.003 54.6709C141.471 55.443 142.08 55.9713 142.832 56.2557C143.584 56.5402 144.417 56.6824 145.331 56.6824C146.022 56.6824 146.652 56.6316 147.221 56.53C147.81 56.4284 148.257 56.337 148.562 56.2557L150.421 64.8806C149.831 65.0838 148.988 65.3073 147.891 65.5511C146.814 65.7949 145.494 65.9371 143.929 65.9778C141.166 66.0591 138.677 65.6425 136.462 64.7282C134.248 63.7936 132.49 62.3511 131.19 60.4006C129.91 58.45 129.28 56.0119 129.3 53.0862V7.31021Z" fill="black"/>
<path d="M89.2173 37.9147V65.3437H78.1847V18.5315H88.7297V26.4859H89.2783C90.3551 23.8649 92.0719 21.7824 94.4288 20.2382C96.806 18.6941 99.7419 17.922 103.237 17.922C106.467 17.922 109.281 18.6128 111.679 19.9944C114.096 21.376 115.966 23.3773 117.286 25.9983C118.627 28.6193 119.288 31.799 119.267 35.5375V65.3437H108.235V37.2442C108.235 34.1153 107.422 31.667 105.797 29.8993C104.191 28.1317 101.967 27.2478 99.1222 27.2478C97.192 27.2478 95.4752 27.6745 93.9717 28.5279C92.4885 29.3609 91.3202 30.5698 90.4668 32.1546C89.6338 33.7394 89.2173 35.6594 89.2173 37.9147Z" fill="black"/>
<path d="M50.6811 66.258C46.1097 66.258 42.1477 65.2522 38.7952 63.2408C35.4428 61.2293 32.8421 58.4153 30.9932 54.7987C29.1646 51.1822 28.2503 46.9561 28.2503 42.1205C28.2503 37.2848 29.1646 33.0486 30.9932 29.4117C32.8421 25.7748 35.4428 22.9506 38.7952 20.9392C42.1477 18.9277 46.1097 17.922 50.6811 17.922C55.2526 17.922 59.2146 18.9277 62.567 20.9392C65.9195 22.9506 68.51 25.7748 70.3386 29.4117C72.1875 33.0486 73.112 37.2848 73.112 42.1205C73.112 46.9561 72.1875 51.1822 70.3386 54.7987C68.51 58.4153 65.9195 61.2293 62.567 63.2408C59.2146 65.2522 55.2526 66.258 50.6811 66.258ZM50.7421 57.4197C53.2209 57.4197 55.2933 56.7391 56.9593 55.3778C58.6254 53.9962 59.8648 52.1473 60.6775 49.831C61.5105 47.5148 61.927 44.9345 61.927 42.09C61.927 39.2252 61.5105 36.6347 60.6775 34.3184C59.8648 31.9819 58.6254 30.1228 56.9593 28.7412C55.2933 27.3596 53.2209 26.6688 50.7421 26.6688C48.2024 26.6688 46.0893 27.3596 44.403 28.7412C42.7369 30.1228 41.4874 31.9819 40.6543 34.3184C39.8416 36.6347 39.4353 39.2252 39.4353 42.09C39.4353 44.9345 39.8416 47.5148 40.6543 49.831C41.4874 52.1473 42.7369 53.9962 44.403 55.3778C46.0893 56.7391 48.2024 57.4197 50.7421 57.4197Z" fill="black"/>
<path d="M27.6728 18.5298V27.0633H0V18.5298H27.6728ZM6.9182 65.3419V14.1107C6.9182 10.9614 7.56837 8.34045 8.86871 6.24772C10.1894 4.15499 11.957 2.59052 14.1716 1.55431C16.3863 0.518104 18.8447 0 21.547 0C23.4569 0 25.1534 0.152385 26.6366 0.457154C28.1198 0.76192 29.217 1.03621 29.9281 1.28002L27.7338 9.81349C27.2664 9.67126 26.6772 9.52903 25.9661 9.38681C25.255 9.22427 24.4626 9.143 23.5889 9.143C21.5368 9.143 20.0841 9.64079 19.2308 10.6364C18.3977 11.6116 17.9812 13.0135 17.9812 14.8421V65.3419H6.9182Z" fill="black"/>
<path fill-rule="evenodd" clip-rule="evenodd" d="M220 10.6392L122.737 151L113 144.361L210.263 4L220 10.6392Z" fill="black"/>
</svg>
