<svg width="16" height="16" viewBox="0 0 16 16" fill="none" xmlns="http://www.w3.org/2000/svg">
<path d="M4.92944 4.74023V6.9375H4.04565V3.1875H4.89038V3.82471H4.93433C5.02059 3.61475 5.15812 3.44792 5.34692 3.32422C5.53735 3.20052 5.77254 3.13867 6.05249 3.13867C6.31128 3.13867 6.5367 3.19401 6.72876 3.30469C6.92244 3.41536 7.07218 3.57568 7.17798 3.78564C7.2854 3.99561 7.3383 4.25033 7.33667 4.5498V6.9375H6.45288V4.68652C6.45288 4.43587 6.38778 4.23975 6.25757 4.09814C6.12899 3.95654 5.95076 3.88574 5.7229 3.88574C5.56828 3.88574 5.43075 3.91992 5.3103 3.98828C5.19149 4.05501 5.0979 4.15186 5.02954 4.27881C4.96281 4.40576 4.92944 4.55957 4.92944 4.74023Z" fill="black"/>
<path d="M3.72852 3.1875V3.87109H1.51172V3.1875H3.72852ZM2.06592 6.9375V2.8335C2.06592 2.58122 2.118 2.37126 2.22217 2.20361C2.32796 2.03597 2.46956 1.91064 2.64697 1.82764C2.82438 1.74463 3.02132 1.70312 3.23779 1.70312C3.39079 1.70312 3.52669 1.71533 3.64551 1.73975C3.76432 1.76416 3.85221 1.78613 3.90918 1.80566L3.7334 2.48926C3.69596 2.47786 3.64876 2.46647 3.5918 2.45508C3.53483 2.44206 3.47135 2.43555 3.40137 2.43555C3.23698 2.43555 3.12061 2.47542 3.05225 2.55518C2.98551 2.6333 2.95215 2.74561 2.95215 2.89209V6.9375H2.06592Z" fill="black"/>
<path d="M13.9305 9V14H13.0468V9H13.9305Z" fill="black"/>
<path d="M9.98291 14.0659C9.68831 14.0659 9.42464 13.9902 9.19189 13.8389C8.95915 13.6875 8.77523 13.4678 8.64014 13.1797C8.50505 12.8916 8.4375 12.5417 8.4375 12.1299C8.4375 11.7132 8.50586 11.3617 8.64258 11.0752C8.78092 10.7871 8.96729 10.5698 9.20166 10.4233C9.43604 10.2752 9.69727 10.2012 9.98535 10.2012C10.2051 10.2012 10.3857 10.2386 10.5273 10.3135C10.6689 10.3867 10.7813 10.4754 10.8643 10.5796C10.9473 10.6821 11.0116 10.779 11.0571 10.8701H11.0938V9H11.98V14H11.1108V13.4092H11.0571C11.0116 13.5003 10.9456 13.5972 10.8594 13.6997C10.7731 13.8006 10.6592 13.8869 10.5176 13.9585C10.376 14.0301 10.1978 14.0659 9.98291 14.0659ZM10.2295 13.3408C10.4167 13.3408 10.5762 13.2904 10.708 13.1895C10.8398 13.0869 10.9399 12.9445 11.0083 12.7622C11.0767 12.5799 11.1108 12.3675 11.1108 12.125C11.1108 11.8825 11.0767 11.6717 11.0083 11.4927C10.9416 11.3136 10.8423 11.1745 10.7104 11.0752C10.5802 10.9759 10.4199 10.9263 10.2295 10.9263C10.0326 10.9263 9.86816 10.9775 9.73633 11.0801C9.60449 11.1826 9.50521 11.3242 9.43848 11.5049C9.37174 11.6855 9.33838 11.8923 9.33838 12.125C9.33838 12.3594 9.37174 12.5685 9.43848 12.7524C9.50684 12.9347 9.60693 13.0788 9.73877 13.1846C9.87223 13.2887 10.0358 13.3408 10.2295 13.3408Z" fill="black"/>
<path fill-rule="evenodd" clip-rule="evenodd" d="M11.7194 4.02478L5.64048 12.7973L5.03191 12.3824L11.1108 3.60983L11.7194 4.02478Z" fill="black"/>
</svg>
