<svg width="16" height="16" viewBox="0 0 16 16" fill="none" xmlns="http://www.w3.org/2000/svg">
<path d="M6.68114 3.69689V4.47835H4V3.69689H6.68114ZM4.67029 7.98377V3.2922C4.67029 3.00381 4.73328 2.76379 4.85927 2.57214C4.98722 2.3805 5.15848 2.23723 5.37305 2.14234C5.58762 2.04745 5.82582 2 6.08763 2C6.27267 2 6.43705 2.01395 6.58075 2.04186C6.72445 2.06977 6.83075 2.09489 6.89965 2.11722L6.68705 2.89868C6.64177 2.88566 6.58469 2.87263 6.51579 2.85961C6.44689 2.84472 6.37012 2.83728 6.28547 2.83728C6.08665 2.83728 5.9459 2.88287 5.86322 2.97404C5.78251 3.06335 5.74215 3.19173 5.74215 3.35919V7.98377H4.67029Z" fill="black"/>
<path d="M10.5846 14C10.2283 14 9.9094 13.9135 9.6279 13.7404C9.3464 13.5674 9.12396 13.3162 8.96057 12.9869C8.79718 12.6576 8.71548 12.2575 8.71548 11.7868C8.71548 11.3105 8.79816 10.9086 8.96352 10.5811C9.13085 10.2518 9.35624 10.0034 9.63971 9.83592C9.92318 9.6666 10.2391 9.58195 10.5876 9.58195C10.8533 9.58195 11.0718 9.62474 11.2431 9.71033C11.4143 9.79406 11.5502 9.89546 11.6506 10.0145C11.751 10.1318 11.8287 10.2425 11.8838 10.3467H11.9281V8.2088H13V13.9246H11.9488V13.2492H11.8838C11.8287 13.3534 11.749 13.4641 11.6447 13.5814C11.5403 13.6967 11.4025 13.7953 11.2313 13.8772C11.06 13.9591 10.8445 14 10.5846 14ZM10.8828 13.1711C11.1092 13.1711 11.3021 13.1134 11.4616 12.9981C11.621 12.8808 11.7421 12.718 11.8248 12.5096C11.9075 12.3012 11.9488 12.0584 11.9488 11.7812C11.9488 11.504 11.9075 11.263 11.8248 11.0584C11.7441 10.8537 11.624 10.6946 11.4645 10.5811C11.3071 10.4676 11.1132 10.4109 10.8828 10.4109C10.6446 10.4109 10.4458 10.4695 10.2864 10.5867C10.1269 10.7039 10.0068 10.8658 9.92613 11.0723C9.84542 11.2788 9.80507 11.5151 9.80507 11.7812C9.80507 12.0491 9.84542 12.2882 9.92613 12.4985C10.0088 12.7069 10.1299 12.8715 10.2893 12.9925C10.4507 13.1116 10.6486 13.1711 10.8828 13.1711Z" fill="black"/>
<path fill-rule="evenodd" clip-rule="evenodd" d="M11.3641 3.81521L4.99595 12.5013L4.35843 12.0905L10.7265 3.40435L11.3641 3.81521Z" fill="black"/>
</svg>
